<mxfile host="app.diagrams.net" modified="2024-01-16T21:02:02.677Z" agent="Mozilla/5.0 (Windows NT 10.0; Win64; x64) AppleWebKit/537.36 (KHTML, like Gecko) Chrome/120.0.0.0 Safari/537.36" etag="QiSyR4oIDK9_nOFpfczZ" version="22.1.18" type="github">
  <diagram name="Page-1" id="WoFdZB5YE0Y4mFk0dADl">
    <mxGraphModel dx="1354" dy="668" grid="1" gridSize="10" guides="1" tooltips="1" connect="1" arrows="1" fold="1" page="0" pageScale="1" pageWidth="850" pageHeight="1100" math="0" shadow="0">
      <root>
        <mxCell id="0" />
        <mxCell id="1" parent="0" />
        <mxCell id="6i_sGHyIbV8gnbMxRWJd-10" style="edgeStyle=none;curved=1;rounded=0;orthogonalLoop=1;jettySize=auto;html=1;fontSize=12;startSize=8;endSize=8;entryX=0.5;entryY=1;entryDx=0;entryDy=0;" edge="1" parent="1" source="6i_sGHyIbV8gnbMxRWJd-1" target="6i_sGHyIbV8gnbMxRWJd-2">
          <mxGeometry relative="1" as="geometry">
            <mxPoint x="-50" y="130" as="targetPoint" />
            <Array as="points">
              <mxPoint x="20" y="190" />
            </Array>
          </mxGeometry>
        </mxCell>
        <mxCell id="6i_sGHyIbV8gnbMxRWJd-1" value="&lt;font style=&quot;font-size: 10px;&quot;&gt;target document&lt;/font&gt;" style="rounded=1;whiteSpace=wrap;html=1;fontSize=16;fillColor=#dae8fc;strokeColor=#6c8ebf;" vertex="1" parent="1">
          <mxGeometry x="-185" y="160" width="90" height="30" as="geometry" />
        </mxCell>
        <mxCell id="6i_sGHyIbV8gnbMxRWJd-13" style="edgeStyle=none;curved=1;rounded=0;orthogonalLoop=1;jettySize=auto;html=1;fontSize=12;startSize=8;endSize=8;" edge="1" parent="1" source="6i_sGHyIbV8gnbMxRWJd-2" target="6i_sGHyIbV8gnbMxRWJd-11">
          <mxGeometry relative="1" as="geometry" />
        </mxCell>
        <mxCell id="6i_sGHyIbV8gnbMxRWJd-2" value="&lt;font style=&quot;font-size: 11px;&quot;&gt;Parsing + vector representation&lt;/font&gt;" style="rounded=1;whiteSpace=wrap;html=1;fontSize=16;fillColor=#fff2cc;strokeColor=#d6b656;" vertex="1" parent="1">
          <mxGeometry x="-60" y="82" width="120" height="60" as="geometry" />
        </mxCell>
        <mxCell id="6i_sGHyIbV8gnbMxRWJd-9" style="edgeStyle=none;curved=1;rounded=0;orthogonalLoop=1;jettySize=auto;html=1;entryX=0;entryY=0.5;entryDx=0;entryDy=0;fontSize=12;startSize=8;endSize=8;" edge="1" parent="1" source="6i_sGHyIbV8gnbMxRWJd-4" target="6i_sGHyIbV8gnbMxRWJd-2">
          <mxGeometry relative="1" as="geometry" />
        </mxCell>
        <mxCell id="6i_sGHyIbV8gnbMxRWJd-4" value="" style="shape=note;whiteSpace=wrap;html=1;backgroundOutline=1;darkOpacity=0.05;fontSize=16;size=15;fillColor=#f5f5f5;fontColor=#333333;strokeColor=#666666;" vertex="1" parent="1">
          <mxGeometry x="-165" y="77" width="50" height="70" as="geometry" />
        </mxCell>
        <mxCell id="6i_sGHyIbV8gnbMxRWJd-5" value="Query" style="text;html=1;strokeColor=none;fillColor=none;align=center;verticalAlign=middle;whiteSpace=wrap;rounded=0;fontSize=11;" vertex="1" parent="1">
          <mxGeometry x="-170" y="87" width="60" height="30" as="geometry" />
        </mxCell>
        <mxCell id="6i_sGHyIbV8gnbMxRWJd-6" value="Search context" style="text;html=1;strokeColor=none;fillColor=none;align=center;verticalAlign=middle;whiteSpace=wrap;rounded=0;fontSize=11;" vertex="1" parent="1">
          <mxGeometry x="-180" y="59" width="80" height="17" as="geometry" />
        </mxCell>
        <mxCell id="6i_sGHyIbV8gnbMxRWJd-14" style="edgeStyle=none;curved=1;rounded=0;orthogonalLoop=1;jettySize=auto;html=1;fontSize=12;startSize=8;endSize=8;" edge="1" parent="1" source="6i_sGHyIbV8gnbMxRWJd-11" target="6i_sGHyIbV8gnbMxRWJd-12">
          <mxGeometry relative="1" as="geometry" />
        </mxCell>
        <mxCell id="6i_sGHyIbV8gnbMxRWJd-11" value="&lt;font style=&quot;font-size: 11px;&quot;&gt;Semantic matching&lt;/font&gt;" style="rounded=1;whiteSpace=wrap;html=1;fontSize=16;fillColor=#fff2cc;strokeColor=#d6b656;" vertex="1" parent="1">
          <mxGeometry x="89" y="82" width="120" height="60" as="geometry" />
        </mxCell>
        <mxCell id="6i_sGHyIbV8gnbMxRWJd-16" style="edgeStyle=none;curved=1;rounded=0;orthogonalLoop=1;jettySize=auto;html=1;entryX=0;entryY=0.5;entryDx=0;entryDy=0;fontSize=12;startSize=8;endSize=8;" edge="1" parent="1" source="6i_sGHyIbV8gnbMxRWJd-12" target="6i_sGHyIbV8gnbMxRWJd-15">
          <mxGeometry relative="1" as="geometry" />
        </mxCell>
        <mxCell id="6i_sGHyIbV8gnbMxRWJd-12" value="&lt;font style=&quot;font-size: 11px;&quot;&gt;Relevance reranking&lt;/font&gt;" style="rounded=1;whiteSpace=wrap;html=1;fontSize=16;fillColor=#fff2cc;strokeColor=#d6b656;" vertex="1" parent="1">
          <mxGeometry x="234" y="82" width="120" height="60" as="geometry" />
        </mxCell>
        <mxCell id="6i_sGHyIbV8gnbMxRWJd-15" value="&lt;font style=&quot;font-size: 11px;&quot;&gt;Results&lt;/font&gt;" style="rounded=1;whiteSpace=wrap;html=1;fontSize=16;fillColor=#d5e8d4;strokeColor=#82b366;" vertex="1" parent="1">
          <mxGeometry x="380" y="82" width="120" height="60" as="geometry" />
        </mxCell>
      </root>
    </mxGraphModel>
  </diagram>
</mxfile>
